<mxfile host="app.diagrams.net" modified="2024-04-27T09:39:25.510Z" agent="Mozilla/5.0 (Windows NT 10.0; Win64; x64) AppleWebKit/537.36 (KHTML, like Gecko) Chrome/123.0.0.0 Safari/537.36" etag="1h4cJdfm8o6FDfmQ8A5b" version="24.3.1" type="github">
  <diagram name="Page-1" id="BuBMA692UDmSYZuWBYIQ">
    <mxGraphModel dx="1326" dy="468" grid="1" gridSize="10" guides="1" tooltips="1" connect="1" arrows="1" fold="1" page="1" pageScale="1" pageWidth="850" pageHeight="1100" math="0" shadow="0">
      <root>
        <mxCell id="0" />
        <mxCell id="1" parent="0" />
        <mxCell id="PYVI4WeD4ukoRT_Pe07P-47" style="edgeStyle=orthogonalEdgeStyle;rounded=0;orthogonalLoop=1;jettySize=auto;html=1;exitX=1;exitY=0.5;exitDx=0;exitDy=0;" edge="1" parent="1" source="PYVI4WeD4ukoRT_Pe07P-25" target="PYVI4WeD4ukoRT_Pe07P-44">
          <mxGeometry relative="1" as="geometry">
            <Array as="points">
              <mxPoint x="260" y="230" />
              <mxPoint x="260" y="230" />
            </Array>
          </mxGeometry>
        </mxCell>
        <mxCell id="PYVI4WeD4ukoRT_Pe07P-25" value="" style="rounded=0;whiteSpace=wrap;html=1;fillColor=#dae8fc;strokeColor=#6c8ebf;" vertex="1" parent="1">
          <mxGeometry x="40" y="200" width="120" height="60" as="geometry" />
        </mxCell>
        <mxCell id="PYVI4WeD4ukoRT_Pe07P-26" value="publisher" style="text;html=1;align=center;verticalAlign=middle;whiteSpace=wrap;rounded=0;fontStyle=1" vertex="1" parent="1">
          <mxGeometry x="70" y="215" width="60" height="30" as="geometry" />
        </mxCell>
        <mxCell id="PYVI4WeD4ukoRT_Pe07P-27" value="" style="outlineConnect=0;dashed=0;verticalLabelPosition=bottom;verticalAlign=top;align=center;html=1;shape=mxgraph.aws3.sqs;fillColor=#D9A741;gradientColor=none;" vertex="1" parent="1">
          <mxGeometry x="599" y="183.5" width="80" height="93" as="geometry" />
        </mxCell>
        <mxCell id="PYVI4WeD4ukoRT_Pe07P-37" style="edgeStyle=orthogonalEdgeStyle;rounded=0;orthogonalLoop=1;jettySize=auto;html=1;exitX=0.5;exitY=1;exitDx=0;exitDy=0;exitPerimeter=0;" edge="1" parent="1">
          <mxGeometry relative="1" as="geometry">
            <mxPoint x="559" y="428" as="sourcePoint" />
            <mxPoint x="559" y="428" as="targetPoint" />
          </mxGeometry>
        </mxCell>
        <mxCell id="PYVI4WeD4ukoRT_Pe07P-42" value="sqs" style="text;html=1;align=center;verticalAlign=middle;whiteSpace=wrap;rounded=0;fontStyle=1" vertex="1" parent="1">
          <mxGeometry x="599" y="276.5" width="60" height="30" as="geometry" />
        </mxCell>
        <mxCell id="PYVI4WeD4ukoRT_Pe07P-43" value="sns" style="text;html=1;align=center;verticalAlign=middle;whiteSpace=wrap;rounded=0;" vertex="1" parent="1">
          <mxGeometry x="529" y="108" width="60" height="30" as="geometry" />
        </mxCell>
        <mxCell id="PYVI4WeD4ukoRT_Pe07P-48" style="edgeStyle=orthogonalEdgeStyle;rounded=0;orthogonalLoop=1;jettySize=auto;html=1;" edge="1" parent="1">
          <mxGeometry relative="1" as="geometry">
            <mxPoint x="599" y="87" as="targetPoint" />
            <mxPoint x="330" y="190" as="sourcePoint" />
            <Array as="points">
              <mxPoint x="330" y="86.5" />
            </Array>
          </mxGeometry>
        </mxCell>
        <mxCell id="PYVI4WeD4ukoRT_Pe07P-49" style="edgeStyle=orthogonalEdgeStyle;rounded=0;orthogonalLoop=1;jettySize=auto;html=1;" edge="1" parent="1">
          <mxGeometry relative="1" as="geometry">
            <mxPoint x="590" y="229.5" as="targetPoint" />
            <mxPoint x="380" y="229.5" as="sourcePoint" />
            <Array as="points">
              <mxPoint x="500" y="229.5" />
              <mxPoint x="500" y="230.5" />
            </Array>
          </mxGeometry>
        </mxCell>
        <mxCell id="PYVI4WeD4ukoRT_Pe07P-50" style="edgeStyle=orthogonalEdgeStyle;rounded=0;orthogonalLoop=1;jettySize=auto;html=1;" edge="1" parent="1" source="PYVI4WeD4ukoRT_Pe07P-44" target="PYVI4WeD4ukoRT_Pe07P-46">
          <mxGeometry relative="1" as="geometry">
            <mxPoint x="590" y="400" as="targetPoint" />
            <Array as="points">
              <mxPoint x="335" y="390" />
            </Array>
          </mxGeometry>
        </mxCell>
        <mxCell id="PYVI4WeD4ukoRT_Pe07P-44" value="Amazon SNS" style="sketch=0;outlineConnect=0;fontColor=#232F3E;gradientColor=none;strokeColor=#ffffff;fillColor=#232F3E;dashed=0;verticalLabelPosition=middle;verticalAlign=bottom;align=center;html=1;whiteSpace=wrap;fontSize=10;fontStyle=1;spacing=3;shape=mxgraph.aws4.productIcon;prIcon=mxgraph.aws4.sns;" vertex="1" parent="1">
          <mxGeometry x="290" y="190" width="90" height="110" as="geometry" />
        </mxCell>
        <mxCell id="PYVI4WeD4ukoRT_Pe07P-45" value="" style="outlineConnect=0;dashed=0;verticalLabelPosition=bottom;verticalAlign=top;align=center;html=1;shape=mxgraph.aws3.sqs;fillColor=#D9A741;gradientColor=none;" vertex="1" parent="1">
          <mxGeometry x="599" y="40" width="76.5" height="93" as="geometry" />
        </mxCell>
        <mxCell id="PYVI4WeD4ukoRT_Pe07P-46" value="" style="outlineConnect=0;dashed=0;verticalLabelPosition=bottom;verticalAlign=top;align=center;html=1;shape=mxgraph.aws3.sqs;fillColor=#D9A741;gradientColor=none;" vertex="1" parent="1">
          <mxGeometry x="599" y="340" width="76.5" height="93" as="geometry" />
        </mxCell>
      </root>
    </mxGraphModel>
  </diagram>
</mxfile>
